<?xml version="1.0" encoding="UTF-8"?>
<!-- Generator: visioncortex VTracer 0.6.3 -->
<svg version="1.1" xmlns="http://www.w3.org/2000/svg" width="1280" height="1280">
<path d="M0 0 C422.4 0 844.8 0 1280 0 C1280 422.4 1280 844.8 1280 1280 C857.6 1280 435.2 1280 0 1280 C0 857.6 0 435.2 0 0 Z " fill="#000102" transform="translate(0,0)"/>
<path d="M0 0 C0.99 0 1.99 0 3.01 0 C6.21 0 9.41 0.02 12.61 0.04 C14.82 0.05 17.04 0.06 19.25 0.07 C41.35 0.17 63.41 0.32 85.37 3.01 C89.56 3.48 93.78 3.72 97.99 3.98 C100.36 4.23 100.36 4.23 102.36 5.23 C105.92 5.67 109.49 6.05 113.06 6.39 C117 6.81 119.84 7.37 123.36 9.23 C125.23 9.43 127.11 9.54 128.98 9.61 C140.61 10.34 151.93 13.46 163.1 16.64 C166.15 17.44 169.24 17.79 172.36 18.23 C173.12 18.54 173.88 18.85 174.66 19.17 C178.66 20.74 182.8 21.47 187.01 22.35 C190.66 23.31 193.9 24.72 197.36 26.23 C199.9 27.06 202.43 27.85 204.98 28.61 C211.19 30.49 217.22 32.64 223.25 35.04 C227.38 36.62 231.57 37.94 235.8 39.24 C238.42 40.25 240.14 41.54 242.36 43.23 C244.5 44.11 244.5 44.11 246.73 44.73 C250.5 45.91 253.83 47.43 257.36 49.23 C258.81 49.8 260.27 50.36 261.73 50.92 C267.18 53.05 272.36 55.66 277.56 58.32 C280.71 59.93 283.84 61.46 287.1 62.82 C289.72 63.96 291.94 65.09 294.3 66.67 C297 68.42 299.69 69.92 302.61 71.29 C305.08 72.48 306.41 73.29 308.36 75.29 C311.31 78.15 314.48 78.94 318.36 80.23 C318.36 80.89 318.36 81.55 318.36 82.23 C319.29 82.4 320.22 82.56 321.17 82.73 C325.99 84.1 329.53 87.1 333.47 90.09 C336.18 92.1 338.93 93.9 341.8 95.67 C346.87 98.84 351.63 102.35 356.39 105.98 C359.2 108.11 362.05 110.18 364.92 112.23 C379.53 122.84 393.02 135.09 406.36 147.23 C407.27 148.05 408.17 148.86 409.11 149.7 C419.45 159.05 429.76 168.69 438.77 179.36 C440.7 181.63 442.72 183.83 444.73 186.04 C448.67 190.4 452.41 194.88 456.11 199.45 C457.61 201.3 459.12 203.15 460.64 204.98 C475.36 222.73 475.36 222.73 475.36 226.23 C475.98 226.5 476.6 226.77 477.23 227.04 C479.36 228.23 479.36 228.23 481.36 231.23 C481.36 232.22 481.36 233.21 481.36 234.23 C482.35 234.56 483.34 234.89 484.36 235.23 C484.67 236.36 484.98 237.5 485.3 238.67 C485.65 239.84 486 241.02 486.36 242.23 C486.98 242.54 487.6 242.84 488.23 243.16 C491.06 244.58 491.87 246.25 493.42 248.98 C493.93 249.87 494.45 250.77 494.98 251.69 C496.05 253.66 497.06 255.66 498.05 257.67 C499.18 260.21 499.18 260.21 500.86 261.73 C503.04 263.91 504.03 266.46 505.36 269.23 C506.08 270.46 506.81 271.69 507.55 272.92 C509.36 276.23 509.36 276.23 509.36 279.23 C510.35 279.56 511.34 279.89 512.36 280.23 C513.64 282.38 513.64 282.38 514.86 285.04 C516.08 287.68 517.19 290.01 518.95 292.33 C520.36 294.23 520.36 294.23 521.36 297.79 C522.03 301.14 522.03 301.14 523.83 302.7 C526.04 304.91 526.58 307.36 527.52 310.29 C528.24 312.31 528.24 312.31 529.91 313.69 C531.83 315.73 531.85 317.16 532.05 319.92 C532.11 320.73 532.18 321.53 532.25 322.37 C532.28 322.98 532.32 323.6 532.36 324.23 C533.02 324.23 533.68 324.23 534.36 324.23 C536.06 327.4 537.38 330.32 538.36 333.79 C539.17 337.16 539.17 337.16 540.8 339.54 C542.28 342.09 543 344.17 543.8 346.98 C544.98 351.16 546.51 354.96 548.32 358.9 C553.52 370.59 556.69 383.1 559.65 395.51 C560.42 398.47 561.39 401.33 562.36 404.23 C563.05 406.64 563.71 409.06 564.36 411.48 C564.69 412.7 565.02 413.92 565.36 415.18 C566.55 419.83 567.45 424.52 568.36 429.23 C568.61 430.5 568.61 430.5 568.86 431.8 C573.17 454.05 576.39 476.02 577.48 498.67 C577.53 499.51 577.57 500.35 577.61 501.22 C579.05 531.1 579.09 560.97 576.62 590.79 C576.43 593.3 576.27 595.8 576.14 598.31 C576.08 599.33 576.08 599.33 576.03 600.38 C575.92 602.3 575.83 604.22 575.74 606.14 C575.36 609.23 575.36 609.23 573.36 612.23 C572.95 614.21 572.63 616.21 572.36 618.22 C572.19 619.4 572.03 620.58 571.86 621.8 C571.69 623.03 571.53 624.27 571.36 625.54 C571.03 627.98 570.7 630.41 570.36 632.84 C570.21 633.92 570.07 635.01 569.92 636.12 C569.35 639.3 568.42 642.18 567.36 645.23 C566.98 647.16 566.65 649.1 566.36 651.04 C565.76 654.81 565.14 658.56 564.36 662.29 C564.21 662.99 564.07 663.68 563.92 664.39 C563.36 666.23 563.36 666.23 561.36 669.23 C561.03 671.2 560.77 673.18 560.55 675.17 C559.72 681.17 557.94 686.07 555.46 691.57 C554.49 693.91 553.98 695.74 553.73 698.23 C553.36 701.23 553.36 701.23 551.93 703.01 C549.34 706.67 549.03 710.89 548.2 715.23 C547.33 718.34 546.63 719.13 544.36 721.23 C543.75 723.16 543.75 723.16 543.48 725.29 C542.59 729.97 540.75 733.68 538.53 737.86 C537.47 740.01 536.76 741.98 536.17 744.29 C535.77 745.75 535.77 745.75 535.36 747.23 C534.7 747.56 534.04 747.89 533.36 748.23 C532.82 750.25 532.82 750.25 532.48 752.61 C531.65 756.82 530.76 757.68 527.36 760.23 C526.75 762.34 526.75 762.34 526.36 764.73 C525.61 768.92 524.74 769.7 521.36 772.23 C520.7 774.57 520.3 776.87 519.95 779.27 C519.75 779.92 519.56 780.56 519.36 781.23 C518.37 781.56 517.38 781.89 516.36 782.23 C515.48 784.16 515.48 784.16 514.92 786.48 C513.7 790.53 512.1 792.98 509.36 796.23 C508.32 798.55 507.32 800.88 506.36 803.23 C504.74 806.26 503.04 808.61 500.8 811.23 C498.28 814.01 498.28 814.01 497.3 816.98 C496.36 819.23 496.36 819.23 494.23 820.54 C493.62 820.77 493 821 492.36 821.23 C492.46 821.95 492.57 822.67 492.67 823.42 C492.23 827.37 490.19 828.53 487.36 831.23 C486.33 833.21 485.32 835.21 484.36 837.23 C483.7 837.56 483.04 837.89 482.36 838.23 C481.91 839.14 481.46 840.04 480.99 840.97 C479.36 844.22 477.58 846.6 475.23 849.36 C472.02 853.19 468.95 857.07 465.98 861.11 C462.64 865.61 459.17 869.95 455.55 874.23 C455.09 874.77 454.63 875.31 454.16 875.87 C451.67 878.78 449.09 881.54 446.36 884.23 C445.28 885.43 444.22 886.64 443.17 887.86 C435.82 896.32 428.25 904.5 420.3 912.42 C419.45 913.27 418.6 914.12 417.73 914.99 C412.77 919.95 407.7 924.68 402.36 929.23 C401.12 930.3 399.88 931.37 398.65 932.44 C396.77 934.06 394.89 935.69 393.01 937.31 C389.33 940.5 385.7 943.74 382.11 947.04 C376.48 952.14 370.44 956.84 363.88 960.68 C361.01 962.45 358.51 964.45 355.92 966.61 C354.96 967.4 354 968.2 353 969.02 C351.51 970.26 350.03 971.52 348.56 972.79 C345.03 975.85 341.44 978 337.36 980.23 C334.39 981.94 331.61 983.76 328.86 985.79 C326.75 987.33 325.12 988.32 322.67 989.29 C320.22 990.11 320.22 990.11 318.42 992.23 C315.91 994.67 313.65 995.13 310.36 996.23 C309.01 997.54 307.67 998.88 306.36 1000.23 C304.71 1000.93 303.04 1001.6 301.36 1002.23 C300.74 1002.7 300.12 1003.18 299.48 1003.67 C296.64 1005.76 293.63 1006.9 290.36 1008.23 C286.13 1009.98 282.23 1011.79 278.36 1014.23 C275.08 1016.28 271.96 1017.84 268.36 1019.23 C263.62 1021.25 258.96 1023.4 254.36 1025.73 C247.21 1029.34 239.86 1033.02 232.11 1035.11 C228.4 1036.22 225.08 1037.67 221.57 1039.29 C219.53 1040.16 217.57 1040.79 215.42 1041.36 C212.28 1041.98 212.28 1041.98 210.36 1044.23 C206.84 1045.07 203.3 1045.7 199.74 1046.35 C196.38 1047.22 195.05 1048.2 192.36 1050.23 C189.15 1051.11 189.15 1051.11 185.55 1051.79 C180.72 1052.72 176.07 1053.85 171.36 1055.23 C159.73 1058.49 148.27 1061.66 136.22 1062.81 C133.45 1063.06 133.45 1063.06 131.51 1064.18 C128.06 1065.86 124.38 1066.18 120.61 1066.73 C119.77 1066.86 118.93 1066.99 118.07 1067.12 C111.35 1068.12 104.62 1069 97.88 1069.8 C94.36 1070.23 90.86 1070.73 87.36 1071.23 C87.34 1080.21 87.32 1089.19 87.31 1098.17 C87.3 1102.34 87.3 1106.51 87.28 1110.68 C87.27 1114.7 87.27 1118.72 87.26 1122.74 C87.26 1124.27 87.26 1125.81 87.25 1127.35 C87.25 1129.49 87.25 1131.64 87.25 1133.78 C87.24 1135.62 87.24 1135.62 87.24 1137.49 C87.05 1140.14 87.05 1140.14 88.36 1141.23 C90.77 1141.17 93.14 1141.04 95.55 1140.86 C96.86 1140.77 98.17 1140.67 99.53 1140.58 C102.86 1140.28 106.07 1139.8 109.36 1139.23 C112.96 1138.77 116.56 1138.38 120.17 1137.98 C123.95 1137.55 127.63 1137 131.36 1136.23 C133.66 1135.99 135.97 1135.79 138.27 1135.61 C140.66 1135.32 140.66 1135.32 143.36 1133.23 C145.69 1133.22 148.03 1133.22 150.36 1133.23 C152.67 1132.74 154.96 1132.17 157.23 1131.54 C165.68 1129.27 174.23 1127.63 182.84 1126.07 C183.87 1125.87 184.9 1125.68 185.96 1125.48 C186.88 1125.31 187.8 1125.14 188.75 1124.97 C191.66 1124.15 193.79 1122.8 196.36 1121.23 C198.68 1120.82 201.02 1120.49 203.36 1120.23 C206.2 1119.6 208.92 1118.74 211.67 1117.79 C215.54 1116.49 219.43 1115.35 223.36 1114.23 C228.95 1112.57 228.95 1112.57 234.25 1110.2 C237.83 1108.56 241.7 1108.38 245.58 1107.89 C248.35 1107.49 248.35 1107.49 249.8 1105.79 C252.21 1103.38 254.97 1103.06 258.23 1102.23 C262.82 1101.06 266.37 1099.76 270.36 1097.23 C272.69 1096.56 275.02 1095.89 277.36 1095.23 C280.4 1093.99 283.38 1092.61 286.36 1091.23 C287.96 1090.52 289.57 1089.81 291.17 1089.11 C293.3 1088.17 295.38 1087.22 297.44 1086.13 C299.36 1085.23 299.36 1085.23 302.3 1084.92 C305.58 1084.47 305.58 1084.47 307.86 1081.67 C310.36 1079.23 310.36 1079.23 313.67 1078.92 C314.56 1079.02 315.45 1079.12 316.36 1079.23 C316.59 1078.59 316.81 1077.95 317.05 1077.29 C318.36 1075.23 318.36 1075.23 320.67 1074.54 C322.46 1074.33 324.26 1074.13 326.05 1073.92 C326.81 1073.69 327.57 1073.46 328.36 1073.23 C329.04 1071.91 329.71 1070.57 330.36 1069.23 C332.67 1068.47 334.86 1068.23 337.27 1067.92 C339.54 1067.44 339.54 1067.44 340.36 1065.27 C340.69 1064.59 341.02 1063.92 341.36 1063.23 C343.42 1062.29 343.42 1062.29 345.8 1061.67 C349.26 1060.75 350.93 1059.84 353.36 1057.23 C355.35 1056.21 357.35 1055.21 359.36 1054.23 C360.02 1053.57 360.68 1052.91 361.36 1052.23 C362.49 1051.94 363.63 1051.65 364.8 1051.36 C368.38 1050.6 368.38 1050.6 369.86 1048.23 C371.36 1046.23 371.36 1046.23 374.92 1045.23 C376.06 1044.9 377.19 1044.57 378.36 1044.23 C379.06 1042.91 379.73 1041.58 380.36 1040.23 C382.35 1039.53 384.35 1038.86 386.36 1038.23 C387.02 1037.24 387.68 1036.25 388.36 1035.23 C389.49 1034.76 390.63 1034.28 391.8 1033.79 C395.46 1032.19 396.16 1031.33 398.36 1028.23 C400.01 1027.53 401.68 1026.86 403.36 1026.23 C403.85 1025.74 404.35 1025.24 404.86 1024.73 C406.36 1023.23 406.36 1023.23 408.8 1022.29 C411.8 1021.05 413.13 1019.59 415.36 1017.23 C416.49 1016.2 417.64 1015.18 418.8 1014.17 C419.35 1013.68 419.91 1013.2 420.48 1012.7 C422.36 1011.23 422.36 1011.23 424.79 1009.77 C427.38 1008.22 429.64 1006.51 431.98 1004.61 C433.29 1003.55 433.29 1003.55 434.62 1002.46 C435.52 1001.73 436.43 1000.99 437.36 1000.23 C438.25 999.51 439.15 998.8 440.07 998.06 C445.65 993.55 451.02 988.88 456.27 983.98 C457.98 982.41 459.73 980.94 461.56 979.5 C469.95 972.89 477.4 965.46 484.9 957.89 C487.11 955.66 489.33 953.44 491.55 951.22 C492.98 949.79 494.41 948.35 495.84 946.91 C496.82 945.94 496.82 945.94 497.82 944.94 C503.59 939.11 509.04 933.04 514.05 926.54 C517.32 922.4 520.81 918.56 524.42 914.73 C529.29 909.55 533.42 904.16 537.36 898.23 C540.26 894.19 543.27 890.29 546.55 886.54 C548.83 883.92 550.67 881.29 552.36 878.23 C553.86 875.55 555.15 873.43 557.36 871.29 C559.73 868.84 560.87 866.28 562.36 863.23 C563.36 862.23 564.36 861.23 565.36 860.23 C565.85 859.2 566.35 858.17 566.86 857.11 C568.36 854.23 568.36 854.23 571.36 853.23 C572.31 851.2 572.31 851.2 572.92 848.79 C574.16 844.43 574.16 844.43 576.36 842.23 C576.65 841.43 576.94 840.62 577.23 839.79 C578.36 837.23 578.36 837.23 580.42 835.86 C582.76 834.27 582.76 834.27 582.8 830.73 C582.98 829.58 583.17 828.42 583.36 827.23 C585.03 826.23 586.69 825.23 588.36 824.23 C588.71 821.9 589.04 819.57 589.36 817.23 C590.98 815.19 592.65 813.19 594.36 811.23 C595.41 808.92 596.42 806.59 597.36 804.23 C597.88 803.38 598.39 802.54 598.92 801.67 C600.49 799.21 600.49 799.21 601.36 796.11 C602.36 793.23 602.36 793.23 603.86 791.84 C606.19 789.34 606.22 786.58 606.73 783.29 C607.36 781.23 607.36 781.23 610.36 779.23 C611.27 776.99 611.27 776.99 611.86 774.42 C612.85 770.52 614.27 767.66 616.36 764.23 C617.24 762.17 618.07 760.08 618.86 757.98 C619.29 756.84 619.72 755.7 620.16 754.52 C621.41 751.1 622.56 747.66 623.68 744.19 C624.5 741.83 625.53 739.59 626.54 737.31 C628.05 733.46 629.14 729.48 630.3 725.51 C631.36 722.23 631.36 722.23 632.86 718.79 C634.4 715.14 635.44 711.57 636.42 707.73 C637.39 703.97 638.36 700.22 639.45 696.49 C640.45 693.2 640.45 693.2 640.8 689.61 C641.36 686.23 641.36 686.23 642.81 683.86 C644.43 681.11 645.06 678.96 645.68 675.84 C645.88 674.82 646.09 673.8 646.3 672.75 C646.51 671.69 646.71 670.63 646.92 669.54 C647.13 668.5 647.34 667.47 647.55 666.4 C647.97 664.33 648.38 662.26 648.78 660.19 C649.31 657.46 649.87 654.74 650.42 652.02 C651.33 647.48 652.08 642.93 652.8 638.36 C653.65 633.04 654.64 627.87 656.05 622.67 C657.38 617.69 657.53 613.37 657.36 608.23 C657.69 607.57 658.02 606.91 658.36 606.23 C658.51 604.77 658.61 603.3 658.68 601.84 C658.72 600.96 658.76 600.09 658.8 599.19 C658.86 597.82 658.86 597.82 658.92 596.42 C658.97 595.51 659.01 594.61 659.05 593.68 C659.29 588.59 659.29 588.59 659.31 583.49 C659.36 581.23 659.36 581.23 660.36 580.23 C660.39 576.96 660.29 573.7 660.2 570.43 C660.35 567.37 660.75 565.79 662.36 563.23 C809.67 710.54 663.36 979.9 663.36 1188.23 C240.96 1188.23 -181.44 1188.23 -616.64 1188.23 C-616.64 980.99 -616.64 773.75 -616.64 560.23 C-615.98 560.89 -615.32 561.55 -614.64 562.23 C-614.67 564.96 -615.2 567.53 -615.64 570.23 C-614.98 570.23 -614.32 570.23 -613.64 570.23 C-613.68 571.53 -613.68 571.53 -613.71 572.85 C-613.84 581.73 -613.45 590.5 -612.77 599.36 C-612.69 600.43 -612.61 601.51 -612.53 602.62 C-612.1 607.81 -611.49 612.33 -609.64 617.23 C-609.28 619.12 -608.97 621.02 -608.7 622.92 C-608.54 624.03 -608.38 625.15 -608.21 626.3 C-608.02 627.59 -607.83 628.89 -607.64 630.23 C-607.15 633.61 -606.65 636.98 -606.14 640.36 C-606.02 641.19 -605.9 642.01 -605.78 642.87 C-605.66 643.65 -605.54 644.43 -605.42 645.24 C-605.32 645.94 -605.22 646.63 -605.11 647.35 C-604.67 649.54 -604.67 649.54 -602.64 652.23 C-602.07 654.82 -601.57 657.37 -601.14 659.98 C-600.26 665.19 -599.11 670.15 -597.64 675.23 C-596.75 679.11 -595.94 683.01 -595.14 686.91 C-594.98 687.68 -594.81 688.45 -594.64 689.25 C-594.5 689.94 -594.35 690.63 -594.2 691.35 C-593.65 693.53 -593.65 693.53 -591.64 696.23 C-591.03 698.38 -590.48 700.55 -589.95 702.73 C-588.35 709.11 -586.3 715.25 -584.02 721.42 C-583.71 722.23 -583.41 723.04 -583.1 723.88 C-581.5 728.18 -581.5 728.18 -579.56 732.32 C-578.07 735.41 -578.29 738.61 -578.18 741.99 C-578 742.73 -577.82 743.47 -577.64 744.23 C-577 744.55 -576.36 744.87 -575.7 745.2 C-573.64 746.23 -573.64 746.23 -572.7 748.69 C-572.39 750.13 -572.39 750.13 -572.08 751.61 C-571.2 755.65 -570.14 757.98 -567.64 761.23 C-566.87 763.53 -566.87 763.53 -566.27 765.98 C-565.04 770.38 -563.3 773.72 -560.77 777.49 C-559.38 779.64 -558.52 781.84 -557.64 784.23 C-557.15 785.22 -556.65 786.21 -556.14 787.23 C-554.64 790.23 -554.64 790.23 -553.7 792.73 C-552.68 795.36 -552.68 795.36 -550.8 797.94 C-548.57 801.34 -546.74 804.77 -544.95 808.42 C-544.65 809.03 -544.34 809.65 -544.02 810.28 C-542.72 812.91 -541.57 815.45 -540.64 818.23 C-539.98 818.23 -539.32 818.23 -538.64 818.23 C-538.27 819.59 -538.27 819.59 -537.89 820.98 C-536.89 824.27 -536.89 824.27 -534.58 826.17 C-532.64 828.23 -532.64 828.23 -532.14 831.86 C-531.98 832.97 -531.81 834.08 -531.64 835.23 C-531.05 835.51 -530.45 835.78 -529.84 836.07 C-526.66 837.75 -525.65 840.07 -523.89 843.17 C-523.28 844.23 -522.66 845.29 -522.03 846.38 C-520.64 849.23 -520.64 849.23 -520.64 852.23 C-520.02 852.5 -519.4 852.77 -518.77 853.04 C-516.64 854.23 -516.64 854.23 -514.64 857.23 C-514.64 858.22 -514.64 859.21 -514.64 860.23 C-513.65 860.56 -512.66 860.89 -511.64 861.23 C-508.64 866.45 -508.64 866.45 -508.64 869.23 C-507.65 869.56 -506.66 869.89 -505.64 870.23 C-504.13 872.09 -504.13 872.09 -502.52 874.54 C-495.34 885.1 -487.52 894.86 -479.15 904.48 C-477.2 906.75 -475.27 909.04 -473.34 911.33 C-465.76 920.35 -458.01 929.03 -449.51 937.2 C-447.64 939.23 -447.64 939.23 -447.64 941.23 C-447.04 941.5 -446.44 941.77 -445.83 942.04 C-443.64 943.23 -442.23 944.33 -440.64 946.23 C-440.64 946.89 -440.64 947.55 -440.64 948.23 C-439.65 948.56 -438.66 948.89 -437.64 949.23 C-437.64 949.89 -437.64 950.55 -437.64 951.23 C-437.05 951.49 -436.47 951.75 -435.86 952.02 C-433.5 953.31 -432 954.67 -430.14 956.61 C-429.48 957.28 -428.83 957.95 -428.16 958.64 C-427.47 959.35 -426.79 960.06 -426.08 960.79 C-419.89 967.09 -413.63 972.83 -406.64 978.23 C-404.97 979.56 -403.31 980.89 -401.64 982.23 C-400.83 982.88 -400.03 983.52 -399.2 984.18 C-396.38 986.44 -393.57 988.71 -390.77 990.98 C-389.88 991.7 -389 992.41 -388.09 993.15 C-385.64 995.23 -385.64 995.23 -383.65 997.28 C-381.38 999.48 -379.03 1001.02 -376.33 1002.67 C-365.24 1009.59 -365.24 1009.59 -360.95 1013.98 C-358.55 1016.32 -357.73 1016.53 -354.64 1017.23 C-353.29 1018.54 -351.95 1019.88 -350.64 1021.23 C-349.98 1021.56 -349.32 1021.89 -348.64 1022.23 C-346.64 1023.23 -346.64 1023.23 -344.77 1025.17 C-342.24 1027.62 -339.81 1028.67 -336.64 1030.23 C-333.85 1031.96 -331.09 1033.74 -328.33 1035.52 C-326.13 1036.92 -323.92 1038.23 -321.64 1039.48 C-318.64 1041.23 -318.64 1041.23 -317.21 1042.73 C-315.38 1044.47 -313.83 1045.1 -311.45 1045.92 C-310.74 1046.17 -310.02 1046.42 -309.29 1046.68 C-308.74 1046.86 -308.2 1047.04 -307.64 1047.23 C-307.64 1047.89 -307.64 1048.55 -307.64 1049.23 C-307.1 1049.39 -306.55 1049.55 -305.99 1049.71 C-300.06 1051.55 -294.98 1054.09 -289.64 1057.23 C-279.38 1063.13 -268.77 1068.54 -257.91 1073.24 C-251.33 1076.11 -244.77 1079.1 -238.39 1082.42 C-235.01 1084.14 -231.56 1085.31 -227.94 1086.44 C-225.5 1087.28 -223.22 1088.31 -220.89 1089.42 C-218.23 1090.65 -216.86 1091.23 -213.89 1091.23 C-211.64 1091.23 -211.64 1091.23 -209.4 1093.13 C-206.26 1095.52 -204.05 1096.07 -200.2 1096.79 C-195.51 1097.76 -191.91 1099.05 -187.64 1101.23 C-184.65 1102.03 -181.66 1102.73 -178.64 1103.39 C-175.64 1104.23 -175.64 1104.23 -172.69 1105.73 C-169.38 1107.36 -166.44 1108.05 -162.83 1108.73 C-158.86 1109.52 -155.06 1110.33 -151.27 1111.73 C-146.36 1113.51 -141.27 1114.3 -136.14 1115.14 C-132.69 1115.73 -130.6 1116.26 -127.64 1118.23 C-125.12 1118.84 -125.12 1118.84 -122.27 1119.23 C-121.22 1119.4 -120.17 1119.56 -119.09 1119.73 C-117.99 1119.9 -116.9 1120.06 -115.77 1120.23 C-113.6 1120.56 -111.44 1120.89 -109.27 1121.23 C-108.31 1121.37 -107.35 1121.52 -106.36 1121.67 C-103.6 1122.24 -101.24 1123.14 -98.64 1124.23 C-95.96 1124.91 -93.28 1125.56 -90.58 1126.17 C-89.06 1126.52 -87.54 1126.87 -86.02 1127.21 C-85.28 1127.39 -84.53 1127.56 -83.77 1127.73 C-80.84 1128.42 -77.93 1129.17 -75.02 1129.92 C-71.88 1130.72 -68.86 1131.38 -65.64 1131.73 C-62.64 1132.23 -62.64 1132.23 -60.86 1133.67 C-58.04 1135.66 -55.58 1136.08 -52.2 1136.73 C-47.67 1137.61 -44.54 1138.79 -40.64 1141.23 C-38.33 1142.03 -38.33 1142.03 -35.95 1142.61 C-20.03 1147.24 -5.11 1158.43 6.36 1170.23 C7.35 1169.9 8.34 1169.57 9.36 1169.23 C9.89 1167.56 10.42 1165.88 10.84 1164.17 C11.48 1161.77 12.5 1159.58 13.5 1157.31 C19.89 1141.76 24.5 1124.29 26.96 1107.66 C27.49 1104.43 28.41 1101.36 29.36 1098.23 C30.76 1092.8 31.6 1087.49 32.07 1081.91 C32.39 1078.92 32.89 1076 33.42 1073.04 C34.01 1069.69 34.47 1066.57 34.36 1063.17 C34.36 1060.23 34.36 1060.23 36.36 1057.23 C36.79 1054.1 36.79 1054.1 36.92 1050.5 C36.96 1049.84 36.99 1049.17 37.03 1048.49 C37.11 1047.08 37.18 1045.66 37.25 1044.24 C37.43 1040.57 37.64 1036.89 37.86 1033.21 C37.92 1032.14 37.92 1032.14 37.98 1031.05 C38.27 1026.25 38.73 1021.55 39.42 1016.79 C40.56 1008.86 40.78 1000.92 41.02 992.92 C41.05 991.9 41.08 990.87 41.11 989.82 C41.14 988.91 41.16 988 41.19 987.07 C41.36 984.23 41.36 984.23 41.86 981.01 C42.35 977.27 42.5 973.71 42.51 969.95 C42.52 969.25 42.52 968.55 42.52 967.83 C42.54 965.5 42.54 963.18 42.55 960.85 C42.56 959.18 42.57 957.5 42.57 955.83 C42.59 952.23 42.61 948.63 42.62 945.03 C42.64 939.33 42.67 933.63 42.7 927.93 C42.76 915.82 42.81 903.71 42.86 891.61 C42.91 878.55 42.97 865.5 43.04 852.44 C43.07 846.79 43.09 841.13 43.11 835.48 C43.12 831.94 43.14 828.41 43.16 824.87 C43.17 823.25 43.17 821.62 43.18 819.99 C43.25 792.71 43.25 792.71 47.36 786.23 C47.95 784.75 47.95 784.75 48.55 783.23 C51.18 778.87 53.59 776.22 58.36 774.23 C72.1 772.23 84.93 775.32 96.36 783.23 C98.02 783.9 99.69 784.57 101.36 785.23 C102.29 785.94 102.29 785.94 103.23 786.67 C105.42 788.41 105.42 788.41 108.58 789.58 C112.27 791.12 115.55 793.09 118.92 795.23 C122.13 797.26 125.27 799.19 128.67 800.88 C131.36 802.23 131.36 802.23 132.8 803.79 C134.46 805.54 134.46 805.54 137.8 806.17 C141.7 807.33 142.56 808.43 145.36 811.23 C146.68 811.87 148.02 812.47 149.38 813.03 C154.51 815.24 159.35 817.87 164.23 820.61 C166 821.58 167.76 822.56 169.52 823.54 C170.36 824 171.19 824.47 172.06 824.95 C180.84 829.84 180.84 829.84 189.8 834.42 C193.36 836.23 193.36 836.23 195.42 837.79 C197.5 839.45 197.5 839.45 200.86 840.73 C204.36 842.23 204.36 842.23 206.36 843.79 C208.45 845.48 208.45 845.48 211.86 846.17 C215.66 847.32 216.64 848.51 219.36 851.23 C221.69 851.92 224.02 852.59 226.36 853.23 C228.38 854.53 230.38 855.87 232.36 857.23 C234.69 858.24 237.02 859.24 239.36 860.23 C240.08 860.79 240.8 861.34 241.55 861.92 C243.53 863.62 243.53 863.62 247.36 863.23 C247.26 862.38 247.15 861.54 247.05 860.67 C247.42 856.58 248.66 855.02 251.14 851.89 C252.52 850.2 252.52 850.2 253.17 847.67 C255.12 843.66 258.75 841.7 262.36 839.23 C263.31 838.49 264.26 837.75 265.23 836.98 C268.88 834.94 272.09 834.33 276.19 833.72 C278.56 833.39 278.56 833.39 280.36 831.23 C282.8 831.16 282.8 831.16 285.86 831.4 C287.53 831.53 287.53 831.53 289.24 831.67 C290.41 831.77 291.59 831.87 292.8 831.98 C294.51 832.11 294.51 832.11 296.25 832.25 C307.5 833.17 318.21 834.8 328.67 839.2 C333.16 840.92 337.85 841.78 342.55 842.79 C343.54 843.01 344.53 843.24 345.55 843.46 C351.11 844.67 356.52 845.55 362.2 845.9 C364.58 846.26 366.22 847.15 368.36 848.23 C369.43 848.21 370.5 848.19 371.61 848.17 C375.32 848.23 377.65 849.08 381.03 850.5 C385.65 851.95 390.54 852 395.36 852.23 C393.22 843.86 389.48 836.4 385.59 828.72 C384.05 825.6 382.64 822.43 381.25 819.24 C380.65 817.87 379.99 816.52 379.3 815.2 C378.36 813.23 378.36 813.23 377.42 809.67 C376.69 806.31 376.69 806.31 374.86 804.79 C372.74 802.58 372.59 800.13 371.96 797.21 C371.09 794.35 369.27 792.5 367.36 790.23 C366.67 788.24 366 786.24 365.36 784.23 C364.72 783.05 364.05 781.88 363.36 780.73 C361.54 777.66 360.4 774.65 359.36 771.23 C359.03 770.43 358.7 769.62 358.36 768.79 C355.27 760.87 354.99 753.85 354.98 745.36 C354.96 744.13 354.94 742.9 354.91 741.63 C354.89 734.22 355.6 728.67 359.36 722.23 C359.85 721.35 360.34 720.47 360.85 719.56 C363.95 714.9 366.93 711.63 371.36 708.23 C374.28 705.81 374.28 705.81 376.36 703.23 C376.7 701 376.7 701 375.36 699.23 C373.71 698.52 372.04 697.86 370.36 697.23 C368.99 696.09 367.62 694.95 366.29 693.78 C363.79 691.77 361.16 690.05 358.48 688.29 C344.92 679.36 344.92 679.36 343.36 676.23 C341.63 675.4 341.63 675.4 339.86 674.54 C331.49 670.49 325.11 664.45 319.36 657.23 C318.83 656.58 318.31 655.93 317.77 655.27 C314.54 650.6 312.6 643.85 312.36 638.23 C313.09 635.43 314.17 632.86 315.36 630.23 C316.01 628.71 316.01 628.71 316.67 627.17 C320.16 621.1 324.31 616.81 330.36 613.23 C331.41 612.57 332.46 611.91 333.55 611.23 C337.4 609.05 341.48 607.69 345.65 606.23 C349.38 604.85 352.84 603.09 356.36 601.23 C357.45 600.69 358.55 600.16 359.67 599.61 C362.48 598.24 362.48 598.24 365.36 596.23 C367.4 595.68 369.44 595.29 371.52 594.89 C373.74 594.3 373.74 594.3 375.36 591.23 C377.91 590.54 380.43 590.22 383.05 589.86 C385.72 589.41 385.72 589.41 387.36 586.23 C389.26 585.76 391.17 585.3 393.09 584.89 C395.61 584.16 397.55 583.08 399.8 581.73 C403.64 579.45 407.01 578.55 411.37 577.76 C414.26 576.99 416.07 575.1 418.36 573.23 C420.69 572.86 423.02 572.53 425.36 572.23 C426.27 571.52 426.27 571.52 427.2 570.79 C429.86 568.87 432.09 568.44 435.3 567.79 C440.1 566.69 442.55 565.34 446.36 562.23 C449.66 561.31 452.98 560.73 456.36 560.23 C456.02 558.25 456.02 558.25 455.36 556.23 C454.66 555.96 453.96 555.69 453.23 555.42 C444.32 551.74 437.26 540.79 433.55 532.29 C428.43 518.85 427.4 503.67 433.36 490.23 C434.88 486.54 434.88 486.54 435.73 482.67 C436.53 479.56 438.11 478.48 440.36 476.23 C441.05 474.24 441.72 472.24 442.36 470.23 C443.34 469.21 444.34 468.21 445.36 467.23 C445.65 466.45 445.94 465.66 446.23 464.86 C447.66 461.53 449.78 459.75 452.36 457.23 C453.72 455.25 455.05 453.25 456.36 451.23 C457.37 449.87 458.39 448.52 459.42 447.17 C461.09 444.97 462.58 442.86 463.98 440.48 C465.5 438 467.31 436.28 469.36 434.23 C470.37 432.57 471.37 430.9 472.36 429.23 C476.34 423.44 480.39 418.2 485.36 413.23 C487.15 410.06 487.15 410.06 488.36 407.23 C489.02 407.23 489.68 407.23 490.36 407.23 C490.61 406.71 490.85 406.2 491.11 405.67 C493.31 401.38 495.69 397.24 498.36 393.23 C500.98 392.54 500.98 392.54 503.36 392.23 C503.36 390.25 503.36 388.27 503.36 386.23 C502.76 386.23 502.15 386.22 501.53 386.22 C486.82 386.14 472.1 386.05 457.38 385.94 C450.27 385.89 443.15 385.85 436.03 385.81 C429.82 385.78 423.62 385.74 417.41 385.69 C414.13 385.66 410.84 385.64 407.56 385.63 C403.88 385.61 400.21 385.58 396.53 385.55 C395.46 385.55 394.39 385.54 393.28 385.54 C377.19 385.37 365.29 381.28 353.36 370.23 C348.41 364.4 344.58 358.58 342.36 351.23 C341.7 350.24 341.04 349.25 340.36 348.23 C339.98 345.9 339.65 343.57 339.36 341.23 C339.19 340.59 339.03 339.95 338.86 339.29 C338.35 337.2 338.14 335.19 337.92 333.04 C337.74 331.78 337.55 330.53 337.36 329.23 C336.7 328.9 336.04 328.57 335.36 328.23 C334.37 328.56 333.38 328.89 332.36 329.23 C332.09 329.85 331.82 330.47 331.55 331.11 C329.84 334.16 327.48 334.76 324.36 336.23 C322.68 337.54 321.01 338.88 319.36 340.23 C318.62 340.66 317.87 341.1 317.11 341.54 C314.54 343.12 312.33 344.84 309.98 346.73 C307.23 348.92 304.77 350.66 301.48 351.92 C298.11 353.33 297.36 354.32 295.36 357.23 C293.72 358.28 292.05 359.28 290.36 360.23 C289.7 360.73 289.04 361.22 288.36 361.73 C286.36 363.23 286.36 363.23 284.11 364.54 C281.79 365.97 279.7 367.46 277.55 369.11 C274.18 371.67 270.72 373.94 267.11 376.14 C265.1 377.39 263.24 378.8 261.36 380.23 C259.69 381.23 258.03 382.23 256.36 383.23 C254.15 384.67 251.97 386.14 249.78 387.61 C248.14 388.71 246.5 389.8 244.85 390.88 C244.05 391.41 243.25 391.94 242.42 392.48 C241.69 392.96 240.96 393.44 240.21 393.93 C238.24 395.24 238.24 395.24 236.36 397.23 C234.69 397.9 233.03 398.57 231.36 399.23 C229.75 400.19 228.16 401.19 226.61 402.23 C225.44 403 225.44 403 224.25 403.79 C222.24 405.1 222.24 405.1 221.36 407.23 C219.37 407.68 217.38 408.12 215.37 408.47 C213.19 409.08 213.19 409.08 212.01 411.21 C210 413.67 208.99 413.9 205.89 414.38 C205.02 414.52 204.14 414.66 203.24 414.8 C201.84 414.98 201.84 414.98 200.42 415.17 C199.47 415.29 198.52 415.42 197.54 415.55 C185.75 416.89 177.77 414.41 168.12 407.45 C158.25 399.52 153.2 389.85 151.36 377.23 C151.26 374.47 151.22 371.74 151.23 368.98 C151.24 367.8 151.24 367.8 151.25 366.59 C151.35 355.2 151.54 344.22 154.67 333.19 C155.71 328.71 155.87 324.25 156.11 319.67 C156.41 315.48 157.14 311.44 157.89 307.32 C158.59 302.69 158.8 298.04 159.02 293.36 C159.35 290.27 160.13 288.06 161.36 285.23 C162.09 280.93 162.39 276.94 162.29 272.59 C162.27 267.35 162.95 262.39 163.8 257.23 C165.01 249.43 165.78 241.72 166.07 233.83 C166.19 230.73 166.37 228.2 167.36 225.23 C167.57 223.61 167.75 221.98 167.89 220.34 C168.03 218.94 168.03 218.94 168.16 217.5 C168.25 216.53 168.33 215.55 168.42 214.54 C168.51 213.55 168.6 212.57 168.7 211.55 C168.92 209.11 169.14 206.67 169.36 204.23 C167.38 204.23 165.4 204.23 163.36 204.23 C163.04 205.14 163.04 205.14 162.71 206.06 C159.78 210.76 153.43 211.85 148.36 213.23 C138.41 215 124.98 215.98 116.36 210.23 C114.1 209.45 111.81 208.78 109.52 208.11 C107.16 207.15 106.08 206.07 104.36 204.23 C103.35 203.67 102.34 203.12 101.3 202.54 C83.34 192.49 75.96 177.11 67.71 159.14 C65.98 155.42 64.16 151.76 62.3 148.11 C59.24 142.13 56.6 136.08 54.42 129.73 C52.8 125.19 50.82 121.36 48.36 117.23 C47.33 114.91 46.33 112.58 45.36 110.23 C44.72 108.77 44.07 107.31 43.42 105.86 C43.08 105.09 42.74 104.32 42.39 103.53 C41.73 102.07 41.08 100.61 40.43 99.15 C38.33 94.46 36.27 89.76 34.23 85.04 C33.74 83.89 33.24 82.75 32.73 81.56 C31.36 78.23 31.36 78.23 30.27 74.89 C29.59 72.23 29.59 72.23 27.86 70.86 C25.74 68.56 25.55 66.16 24.89 63.16 C24.22 60.72 22.95 59.17 21.36 57.23 C20.67 54.98 20.67 54.98 20.36 53.23 C19.7 53.23 19.04 53.23 18.36 53.23 C15.48 60.08 15.48 60.08 13.3 67.17 C12.36 70.23 12.36 70.23 10.86 71.67 C8.71 73.91 8.54 76.34 7.89 79.32 C7.21 81.76 5.88 83.23 4.36 85.23 C3.85 86.66 3.37 88.1 2.92 89.54 C1.99 92.52 0.99 95.07 -0.64 97.73 C-2.68 101.06 -3.77 104.45 -4.92 108.16 C-5.82 110.75 -7.2 112.91 -8.64 115.23 C-8.97 116.26 -9.3 117.29 -9.64 118.36 C-10.64 121.23 -10.64 121.23 -12.2 122.67 C-13.99 124.31 -13.99 124.31 -14.08 127.73 C-14.26 128.89 -14.45 130.04 -14.64 131.23 C-15.28 131.68 -15.92 132.14 -16.58 132.61 C-19.54 134.94 -19.43 137.42 -20.08 141.03 C-20.85 144.07 -22.64 145.86 -24.64 148.23 C-25.33 150.56 -26 152.89 -26.64 155.23 C-27.64 156.57 -28.64 157.9 -29.64 159.23 C-30.34 160.77 -30.98 162.34 -31.58 163.92 C-34.39 171.17 -37.21 177.8 -41.64 184.23 C-42.07 185.18 -42.51 186.13 -42.95 187.11 C-46.7 194.04 -52.5 199.39 -58.64 204.23 C-59.23 204.71 -59.82 205.18 -60.43 205.68 C-64.2 208.58 -66.86 209.56 -71.64 210.23 C-72.3 211.22 -72.96 212.21 -73.64 213.23 C-87.7 217.21 -104.29 216.55 -117.45 210.04 C-118.5 209.44 -119.56 208.85 -120.64 208.23 C-123.06 210.19 -123.06 210.19 -122.72 213.89 C-122.65 215.55 -122.55 217.2 -122.45 218.86 C-122.4 219.75 -122.36 220.65 -122.3 221.58 C-121.77 230.48 -120.97 239.35 -120.14 248.23 C-120.08 248.94 -120.01 249.64 -119.94 250.37 C-119.75 252.41 -119.56 254.44 -119.36 256.48 C-119.25 257.66 -119.13 258.84 -119.01 260.06 C-118.69 262.83 -118.19 265.5 -117.64 268.23 C-117.47 269.82 -117.33 271.42 -117.21 273.01 C-117.14 273.92 -117.07 274.84 -116.99 275.78 C-116.92 276.75 -116.84 277.73 -116.77 278.73 C-116.08 287.09 -115.14 295.36 -113.89 303.66 C-112.43 313.37 -111.26 323.12 -110.09 332.86 C-109.13 340.69 -108 348.46 -106.64 356.23 C-105.04 366.32 -104.26 378.23 -106.64 388.23 C-107.63 388.89 -108.62 389.55 -109.64 390.23 C-110.29 392.12 -110.29 392.12 -110.58 394.23 C-111.04 396.41 -111.04 396.41 -111.64 398.23 C-113.64 399.42 -113.64 399.42 -115.64 400.23 C-115.92 401 -116.19 401.76 -116.48 402.55 C-118.98 408.32 -126.05 411.84 -131.7 414.17 C-140.99 416.85 -154.51 416.54 -163.64 413.23 C-166.27 411.29 -166.27 411.29 -168.64 409.23 C-169.92 408.73 -171.21 408.28 -172.52 407.86 C-176.37 406.53 -178.68 404.6 -181.64 401.85 C-184.9 399.21 -188.63 397.48 -192.38 395.62 C-194.64 394.23 -194.64 394.23 -195.64 391.23 C-197.62 390.52 -199.63 389.86 -201.64 389.23 C-203.63 388.13 -205.6 386.96 -207.52 385.73 C-208.48 385.12 -209.45 384.51 -210.45 383.89 C-211.17 383.34 -211.89 382.79 -212.64 382.23 C-212.64 381.57 -212.64 380.91 -212.64 380.23 C-213.35 380.14 -214.06 380.04 -214.79 379.94 C-218.13 379.11 -220.44 377.73 -223.33 375.86 C-224.28 375.25 -225.23 374.64 -226.21 374.02 C-228.64 372.23 -228.64 372.23 -230.64 369.23 C-232.82 368.01 -232.82 368.01 -235.27 367.04 C-236.08 366.7 -236.9 366.35 -237.74 366 C-238.37 365.75 -239 365.49 -239.64 365.23 C-239.64 364.57 -239.64 363.91 -239.64 363.23 C-240.23 363.11 -240.82 363 -241.43 362.88 C-243.77 362.19 -245.1 361.34 -247.02 359.86 C-249.26 358.18 -251.23 356.93 -253.77 355.67 C-256.64 354.23 -256.64 354.23 -258.89 352.42 C-263.41 348.82 -268.47 345.82 -273.64 343.23 C-273.64 342.57 -273.64 341.91 -273.64 341.23 C-274.36 340.98 -275.08 340.74 -275.83 340.48 C-278.64 339.23 -278.64 339.23 -281.02 337.29 C-283.64 335.04 -283.64 335.04 -287.27 333.73 C-290.75 332.18 -291.5 331.18 -293.64 328.23 C-294.96 328.23 -296.28 328.23 -297.64 328.23 C-297.75 329.61 -297.75 329.61 -297.87 331.02 C-299.27 344.5 -303.37 356.05 -312.64 366.23 C-313.26 366.93 -313.88 367.63 -314.51 368.34 C-323.95 378.43 -337.17 384.57 -351.05 385.37 C-351.9 385.38 -352.74 385.38 -353.61 385.39 C-355.07 385.4 -355.07 385.4 -356.56 385.42 C-357.62 385.42 -358.68 385.43 -359.76 385.44 C-360.89 385.45 -362.01 385.46 -363.17 385.47 C-366.87 385.5 -370.58 385.52 -374.29 385.55 C-376.86 385.57 -379.43 385.59 -382 385.61 C-388.07 385.66 -394.15 385.7 -400.22 385.75 C-407.14 385.8 -414.05 385.85 -420.97 385.91 C-435.19 386.02 -449.42 386.13 -463.64 386.23 C-463.97 387.88 -464.3 389.53 -464.64 391.23 C-463.51 391.57 -463.51 391.57 -462.35 391.92 C-459.01 393.54 -458.16 395.04 -456.33 398.23 C-453.49 402.94 -450.4 407.15 -446.92 411.4 C-439.48 420.64 -432.54 430.31 -425.58 439.92 C-424.76 441.05 -424.76 441.05 -423.92 442.2 C-421.32 445.8 -418.91 449.42 -416.64 453.23 C-416 453.85 -415.36 454.47 -414.7 455.11 C-411.54 458.37 -409.54 462.19 -407.7 466.36 C-406.62 468.46 -406.62 468.46 -404.27 470.61 C-395.39 479.48 -390.41 493.16 -390.37 505.61 C-390.37 506.48 -390.38 507.34 -390.39 508.23 C-390.38 509.09 -390.38 509.96 -390.37 510.85 C-390.38 516 -390.98 520.3 -392.64 525.23 C-392.88 526.06 -393.11 526.89 -393.35 527.74 C-394.76 532.36 -396.07 534.88 -399.64 538.23 C-400.03 539.26 -400.42 540.29 -400.83 541.36 C-403.22 547.44 -408.49 553.77 -414.43 556.52 C-415.16 556.76 -415.89 556.99 -416.64 557.23 C-415.99 560.28 -415.99 560.28 -413.89 561.26 C-413.15 561.56 -412.41 561.86 -411.64 562.17 C-410.82 562.51 -410.01 562.85 -409.17 563.2 C-408.33 563.54 -407.5 563.88 -406.64 564.23 C-401.99 566.24 -397.41 568.32 -392.89 570.61 C-382.1 576.28 -382.1 576.28 -370.64 580.23 C-370.08 580.68 -369.53 581.14 -368.95 581.61 C-366.17 583.56 -363.5 584.34 -360.27 585.35 C-354.04 587.44 -348.01 590.17 -342.02 592.86 C-339.24 593.99 -336.58 594.85 -333.7 595.67 C-329.75 596.81 -326.34 598.32 -322.72 600.25 C-319.54 601.74 -316.23 602.62 -312.84 603.52 C-310.64 604.23 -310.64 604.23 -307.64 606.23 C-306.51 606.52 -305.37 606.81 -304.2 607.11 C-300.43 608.3 -299.27 609.42 -296.64 612.23 C-295.9 612.52 -295.16 612.81 -294.39 613.11 C-285.66 616.68 -278.83 623.94 -274.64 632.23 C-273.77 633.87 -273.77 633.87 -272.89 635.54 C-271.34 640.12 -270.82 644.44 -271.64 649.23 C-272.98 651.22 -272.98 651.22 -274.64 653.23 C-275.07 654.01 -275.49 654.8 -275.93 655.6 C-278.17 659.05 -280.92 661.55 -283.95 664.29 C-284.51 664.81 -285.07 665.33 -285.64 665.86 C-289.11 669.03 -292.66 671.7 -296.64 674.23 C-302.11 677.9 -307.03 681.5 -311.64 686.23 C-313.62 687.6 -315.61 688.94 -317.64 690.23 C-318.32 690.75 -319 691.26 -319.7 691.79 C-321.93 693.45 -324.26 694.81 -326.64 696.23 C-327.52 696.76 -328.41 697.29 -329.32 697.84 C-332.98 700.03 -332.98 700.03 -336.64 702.23 C-334.43 704.66 -332.32 706.03 -329.39 707.48 C-319.09 713.14 -314.89 721.38 -310.49 732 C-309.36 736.31 -309.3 740.36 -309.33 744.79 C-309.33 745.68 -309.34 746.56 -309.34 747.47 C-309.5 757.06 -310.97 765.71 -315.64 774.23 C-315.97 775.45 -316.3 776.66 -316.64 777.92 C-317.64 781.23 -317.64 781.23 -319.14 782.67 C-321.3 784.92 -321.48 787.37 -322.02 790.39 C-322.64 792.23 -322.64 792.23 -325.64 794.23 C-326.29 796.32 -326.29 796.32 -326.58 798.67 C-327.37 802.87 -328.25 803.69 -331.64 806.23 C-332.3 808.5 -332.7 810.73 -333.05 813.07 C-333.75 815.62 -334.78 816.42 -336.64 818.23 C-337.53 820.32 -337.53 820.32 -338.14 822.61 C-338.96 825.27 -339.67 827.28 -341.14 829.67 C-342.64 832.23 -343.3 834.38 -344.08 837.23 C-345.24 841.41 -346.87 843.87 -349.64 847.23 C-349.51 849.49 -349.51 849.49 -348.64 851.23 C-343.47 850.85 -343.47 850.85 -338.64 849.23 C-336.13 847.98 -333.73 847.88 -330.97 847.57 C-326.79 846.97 -322.73 845.88 -318.64 844.86 C-310.86 842.95 -303.1 841.32 -295.22 839.92 C-291.87 839.28 -288.62 838.48 -285.33 837.61 C-280.64 836.38 -276.18 835.87 -271.36 835.55 C-268.47 835.21 -265.91 834.51 -263.14 833.67 C-254.58 831.17 -245.39 831.77 -236.64 833.23 C-236.31 833.56 -235.98 833.89 -235.64 834.23 C-234.34 834.44 -233.04 834.64 -231.7 834.86 C-221.29 837.14 -214.53 844.81 -208.64 853.23 C-207.29 855.34 -205.98 857.46 -204.75 859.64 C-203.57 861.54 -203.57 861.54 -200.64 863.23 C-197.4 863.06 -196.04 862.65 -193.77 860.29 C-190.99 857.6 -188.32 857.28 -184.64 856.23 C-183.27 854.94 -181.93 853.6 -180.64 852.23 C-177.95 850.73 -175.23 849.48 -172.39 848.3 C-167.57 846.31 -167.57 846.31 -163.52 843.11 C-160.92 840.51 -158.13 840.23 -154.64 839.23 C-153.98 838.57 -153.32 837.91 -152.64 837.23 C-149.96 834.55 -147.24 834.26 -143.64 833.23 C-142.29 831.92 -140.95 830.58 -139.64 829.23 C-137.64 828.55 -135.64 827.88 -133.64 827.23 C-131.97 825.9 -130.3 824.57 -128.64 823.23 C-127 822.49 -125.35 821.75 -123.68 821.08 C-121.18 820.04 -118.76 818.87 -116.33 817.67 C-115.49 817.25 -114.64 816.84 -113.78 816.41 C-111.52 815.29 -111.52 815.29 -109.64 813.23 C-108.53 812.76 -107.41 812.28 -106.27 811.79 C-102.77 810.47 -102.77 810.47 -100.64 808.67 C-98.64 807.23 -98.64 807.23 -95.02 806.23 C-91.39 805.55 -91.39 805.55 -89.64 802.23 C-87.58 801.39 -87.58 801.39 -85.2 800.73 C-81.82 799.81 -81.82 799.81 -79.11 797.7 C-77.31 795.9 -76.12 795.71 -73.64 795.29 C-70.39 794.67 -70.39 794.67 -68.2 792.29 C-65.96 789.34 -63.3 788.98 -59.8 788.04 C-57.4 787.14 -56.4 786.03 -54.64 784.23 C-53.51 783.92 -52.37 783.61 -51.2 783.29 C-47.63 782.56 -47.63 782.56 -45.83 780.23 C-42.78 777.44 -39.8 777.3 -35.79 776.72 C-35.08 776.56 -34.37 776.4 -33.64 776.23 C-33.31 775.57 -32.98 774.91 -32.64 774.23 C-27.77 772.65 -24.49 773.69 -19.89 775.41 C-17.83 776.16 -15.83 776.68 -13.7 777.17 C-10.64 778.23 -10.64 778.23 -9.52 780.04 C-9.23 780.76 -8.94 781.49 -8.64 782.23 C-7.5 783.22 -7.5 783.22 -6.33 784.23 C1.05 791.35 2.13 802.3 2.45 811.98 C2.49 814.97 2.49 817.95 2.49 820.94 C2.49 822.07 2.49 823.19 2.49 824.35 C2.5 828.06 2.5 831.76 2.49 835.46 C2.49 838.07 2.49 840.67 2.5 843.27 C2.5 848.72 2.49 854.17 2.49 859.62 C2.48 865.86 2.49 872.1 2.49 878.34 C2.5 884.4 2.5 890.46 2.49 896.52 C2.49 899.07 2.49 901.62 2.5 904.17 C2.52 939.92 2.52 939.92 0.73 956.67 C0.31 960.74 0.56 964.22 1.36 968.23 C0.37 968.56 -0.62 968.89 -1.64 969.23 C-1.68 970.35 -1.68 970.35 -1.72 971.48 C-2.5 986.47 -5.16 1001.44 -9.12 1015.91 C-9.63 1018.16 -9.73 1020.06 -9.64 1022.36 C-9.64 1023.3 -9.64 1024.25 -9.64 1025.23 C-10.63 1025.89 -11.62 1026.55 -12.64 1027.23 C-13.42 1029.9 -14.04 1032.46 -14.58 1035.17 C-16.59 1044.42 -19.4 1052.75 -23.64 1061.23 C-24.72 1064.21 -25.69 1067.21 -26.64 1070.23 C-33.16 1070.43 -39.21 1070.32 -45.57 1068.86 C-49.78 1068 -54.01 1067.41 -58.27 1066.79 C-95.55 1061.32 -95.55 1061.32 -98.64 1058.23 C-100.07 1057.9 -101.51 1057.62 -102.95 1057.36 C-111 1055.81 -118.89 1053.87 -126.64 1051.23 C-128.41 1050.74 -130.18 1050.27 -131.95 1049.79 C-136.92 1048.46 -141.78 1046.9 -146.64 1045.23 C-148.09 1044.77 -148.09 1044.77 -149.58 1044.29 C-152.29 1043.35 -154.92 1042.31 -157.58 1041.23 C-160.55 1040.02 -163.47 1038.93 -166.58 1038.11 C-169.64 1037.23 -169.64 1037.23 -172.64 1035.23 C-174 1034.73 -175.38 1034.28 -176.77 1033.86 C-180.85 1032.55 -184.69 1030.92 -188.59 1029.13 C-190.78 1028.13 -190.78 1028.13 -193.7 1027.23 C-196.85 1026.16 -199.66 1024.77 -202.61 1023.24 C-204.55 1022.27 -206.51 1021.43 -208.52 1020.61 C-211.64 1019.23 -211.64 1019.23 -213.64 1017.23 C-215.96 1016.83 -218.3 1016.49 -220.64 1016.23 C-220.64 1015.57 -220.64 1014.91 -220.64 1014.23 C-221.22 1014.06 -221.8 1013.89 -222.4 1013.71 C-227.42 1012.16 -231.51 1010.52 -235.64 1007.23 C-235.64 1006.57 -235.64 1005.91 -235.64 1005.23 C-236.94 1005.39 -236.94 1005.39 -238.27 1005.54 C-242.07 1005.19 -243.34 1004.06 -246.09 1001.52 C-248.07 999.87 -250.25 999.04 -252.64 998.11 C-257.6 995.93 -262.79 993.08 -266.64 989.23 C-268.13 988.64 -268.13 988.64 -269.64 988.04 C-273.89 986.3 -277.39 983.73 -281.1 981.05 C-283.42 979.39 -285.76 977.8 -288.14 976.23 C-292.17 973.56 -296.14 970.81 -300.09 968.02 C-301.82 966.81 -303.57 965.6 -305.32 964.41 C-309.88 961.29 -313.73 958.14 -317.64 954.23 C-319.32 953.29 -321 952.36 -322.7 951.45 C-325.89 949.45 -328.54 946.85 -331.32 944.31 C-333.54 942.32 -335.83 940.48 -338.2 938.67 C-343.36 934.72 -348.3 930.58 -352.89 925.98 C-355.64 923.23 -358.47 920.57 -361.31 917.91 C-368.06 911.62 -374.73 905.25 -381.27 898.73 C-381.9 898.1 -382.54 897.46 -383.2 896.81 C-386.99 893.01 -390.58 889.09 -394.09 885.03 C-395.94 882.89 -397.85 880.81 -399.77 878.73 C-403.76 874.3 -407.57 869.73 -411.33 865.11 C-411.86 864.45 -412.4 863.79 -412.95 863.12 C-416.14 859.16 -419.23 855.15 -422.24 851.05 C-423.68 849.18 -425.2 847.42 -426.77 845.67 C-429.13 842.96 -430.93 840.22 -432.64 837.07 C-433.79 834.96 -435.01 832.91 -436.27 830.86 C-436.67 830.19 -437.08 829.52 -437.49 828.83 C-438.56 827.07 -438.56 827.07 -440.64 826.23 C-442.51 823.13 -444.23 819.99 -445.94 816.8 C-446.38 815.99 -446.82 815.19 -447.27 814.36 C-447.67 813.59 -448.08 812.83 -448.49 812.05 C-449.52 810.08 -449.52 810.08 -451.64 809.23 C-452.59 807.36 -453.54 805.49 -454.44 803.6 C-455.71 801.1 -457.11 798.74 -458.58 796.36 C-461.18 792.1 -463.43 787.76 -465.56 783.26 C-466.59 781.09 -466.59 781.09 -468.64 779.23 C-469.07 777.87 -469.07 777.87 -469.52 776.48 C-470.52 773.14 -470.52 773.14 -472.64 770.23 C-474.64 767.23 -475.51 764.63 -476.64 761.23 C-477.32 760.22 -478 759.21 -478.7 758.17 C-480.61 755.27 -481.03 753.55 -481.64 750.23 C-482.1 749.63 -482.57 749.03 -483.04 748.41 C-484.82 745.98 -485.67 743.77 -486.64 740.92 C-487.75 737.72 -488.88 734.57 -490.27 731.48 C-491.64 728.23 -491.64 728.23 -492.64 724.54 C-493.41 721.3 -493.41 721.3 -495.14 719.29 C-496.99 716.75 -497.42 714.48 -498.02 711.43 C-498.61 709.07 -498.61 709.07 -500.07 706.48 C-501.89 702.72 -502.8 699.1 -503.7 695.04 C-504.97 689.37 -504.97 689.37 -507.64 684.23 C-508 681.9 -508.32 679.57 -508.64 677.23 C-509.39 673.98 -510.26 670.76 -511.14 667.54 C-511.59 665.87 -512.04 664.2 -512.48 662.53 C-512.68 661.8 -512.88 661.07 -513.08 660.32 C-514.29 655.8 -515.24 651.26 -516.14 646.67 C-516.44 645.22 -516.75 643.77 -517.11 642.34 C-519.52 632.72 -521.03 623.02 -522.11 613.18 C-522.5 610.26 -523 607.53 -523.64 604.66 C-524.73 599.23 -525.06 593.93 -525.24 588.4 C-525.28 587.41 -525.32 586.42 -525.36 585.39 C-525.48 582.26 -525.59 579.12 -525.7 575.98 C-525.82 572.83 -525.94 569.68 -526.06 566.52 C-526.14 564.57 -526.21 562.62 -526.27 560.67 C-526.45 556.09 -526.87 551.75 -527.64 547.23 C-527.73 544.85 -527.77 542.46 -527.77 540.07 C-527.77 539.41 -527.78 538.74 -527.78 538.06 C-527.78 536.66 -527.78 535.26 -527.77 533.86 C-527.77 531.74 -527.77 529.61 -527.78 527.48 C-527.78 526.12 -527.78 524.75 -527.77 523.39 C-527.77 522.16 -527.77 520.93 -527.77 519.66 C-527.65 516.42 -527.18 513.43 -526.64 510.23 C-526.47 507.51 -526.34 504.8 -526.25 502.07 C-526.18 500.47 -526.11 498.86 -526.04 497.25 C-526.01 496.42 -525.97 495.59 -525.94 494.73 C-525.33 480.63 -524.28 467.08 -521.06 453.3 C-520.46 450.34 -520.18 447.36 -519.88 444.35 C-519.54 441.34 -518.92 438.43 -518.27 435.48 C-518 434.28 -517.74 433.09 -517.46 431.86 C-516.44 427.33 -515.39 422.81 -514.33 418.29 C-513.5 414.63 -512.81 410.95 -512.17 407.25 C-511.64 405.23 -511.64 405.23 -509.64 402.23 C-509.07 399.77 -508.58 397.34 -508.14 394.86 C-507.35 390.43 -506.37 386.39 -504.64 382.23 C-504.16 380.3 -503.7 378.36 -503.27 376.42 C-502.17 371.87 -500.73 368.12 -498.48 364.04 C-497.42 361.99 -497.42 361.99 -497.14 358.48 C-496.54 354.58 -495.34 353.93 -492.64 351.23 C-492.42 349.64 -492.42 349.64 -492.2 348.02 C-491.61 344.04 -490.47 341.25 -488.7 337.67 C-486.7 333.57 -485.06 329.56 -483.64 325.23 C-483.12 324.38 -482.61 323.54 -482.08 322.67 C-480.5 320.32 -480.5 320.32 -480.2 317.67 C-479.64 315.23 -479.64 315.23 -477.7 313.42 C-475.15 310.71 -474.87 308.64 -474.33 305.04 C-473.64 303.23 -473.64 303.23 -471.61 302.27 C-470.63 301.75 -470.63 301.75 -469.64 301.23 C-469.09 299.14 -469.09 299.14 -469.14 296.79 C-468.98 294.34 -468.98 294.34 -468.64 292.23 C-466.64 290.61 -466.64 290.61 -464.64 289.23 C-464.42 287.53 -464.42 287.53 -464.2 285.79 C-463.49 281.29 -462.12 280.96 -458.64 278.23 C-457.69 276.25 -457.01 274.27 -456.31 272.18 C-454.98 268.3 -453.14 265.69 -450.14 262.92 C-447.44 260.01 -446.53 257.83 -445.41 254.1 C-444.51 251.92 -443.34 250.83 -441.64 249.23 C-441.15 248.36 -440.65 247.5 -440.14 246.61 C-438.64 244.23 -438.64 244.23 -435.64 243.23 C-434.97 240.9 -434.3 238.57 -433.64 236.23 C-432.36 234.52 -431.03 232.85 -429.64 231.23 C-429.31 230.24 -428.98 229.25 -428.64 228.23 C-427.88 227.65 -427.11 227.08 -426.33 226.48 C-423.67 224.26 -422.46 222.3 -420.86 219.28 C-415.99 211.09 -408.91 203.93 -402.52 196.9 C-398.81 192.82 -395.21 188.72 -391.81 184.38 C-386.09 177.37 -379.74 171.03 -373.32 164.65 C-371.27 162.61 -369.23 160.56 -367.19 158.5 C-360.69 152 -354.17 145.79 -346.96 140.08 C-343.82 137.58 -340.92 134.87 -338.02 132.11 C-333.1 127.5 -328.04 123.27 -322.64 119.23 C-320.32 117.39 -318 115.55 -315.68 113.71 C-313.64 112.23 -313.64 112.23 -311.5 111.22 C-309.3 110.24 -309.3 110.24 -307.64 107.23 C-306.86 106.92 -306.07 106.61 -305.27 106.29 C-302.26 105.08 -300.88 103.54 -298.64 101.23 C-297 100.18 -295.34 99.18 -293.64 98.23 C-290.7 96.57 -288.28 94.93 -285.7 92.73 C-282.77 90.33 -280.04 88.86 -276.64 87.23 C-275.94 86.69 -275.24 86.16 -274.52 85.61 C-272.64 84.23 -272.64 84.23 -270.58 83.79 C-268.47 83.41 -268.47 83.41 -267.39 81.36 C-265.11 78.58 -262.86 78.05 -259.48 77.04 C-257.28 76.27 -257.28 76.27 -255.64 73.23 C-253.63 72.74 -251.61 72.26 -249.59 71.82 C-246.86 70.99 -245.57 69.28 -243.64 67.23 C-241.32 66.19 -238.99 65.19 -236.64 64.23 C-235.98 63.57 -235.32 62.91 -234.64 62.23 C-233.59 61.86 -232.54 61.49 -231.45 61.11 C-227.15 59.58 -223.25 57.44 -219.27 55.23 C-214.14 52.4 -209.34 50.33 -203.64 48.88 C-200.81 47.96 -198.93 46.09 -196.64 44.23 C-194.31 43.88 -191.98 43.54 -189.64 43.23 C-188.98 42.24 -188.32 41.25 -187.64 40.23 C-185.86 39.68 -185.86 39.68 -183.7 39.36 C-178.81 38.42 -174.7 36.53 -170.22 34.4 C-167.06 32.97 -163.99 32.1 -160.64 31.23 C-158.17 30.29 -155.75 29.28 -153.33 28.23 C-150.45 27.16 -147.6 26.46 -144.61 25.79 C-142.59 25.29 -142.59 25.29 -140.69 24.23 C-138.41 23.12 -136.38 22.68 -133.89 22.23 C-125.36 20.82 -125.36 20.82 -117.64 17.23 C-115.97 17.19 -114.31 17.19 -112.64 17.23 C-111.65 16.9 -110.66 16.57 -109.64 16.23 C-107.36 15.7 -105.08 15.22 -102.8 14.73 C-100.48 14.23 -100.48 14.23 -97.64 13.23 C-90.68 11.5 -83.87 10.13 -76.7 9.73 C-71.62 9.45 -68.18 8.45 -63.64 6.23 C-62.98 6.56 -62.32 6.89 -61.64 7.23 C-59.82 6.84 -58.01 6.39 -56.2 5.92 C-47.68 3.97 -39.13 3.47 -30.41 2.97 C-29.3 2.9 -28.18 2.83 -27.03 2.76 C-26.04 2.7 -25.05 2.65 -24.03 2.59 C-21.23 2.29 -18.65 1.82 -15.91 1.21 C-10.56 0.11 -5.44 -0.04 0 0 Z " fill="#FCFCFC" transform="translate(616.640625,91.76953125)"/>
<path d="M0 0 C422.4 0 844.8 0 1280 0 C1280 197.01 1280 394.02 1280 597 C1279.01 596.34 1278.02 595.68 1277 595 C1276.88 592.44 1276.88 592.44 1277 590 C1276.67 589.67 1276.34 589.34 1276 589 C1275.94 585.39 1275.98 581.78 1276.04 578.17 C1276.21 573.95 1276.21 573.95 1275 570 C1274.93 567.46 1275 564.95 1275.06 562.41 C1275.11 559.85 1275.11 559.85 1274 557 C1274.06 555.11 1274.06 555.11 1274.12 553.19 C1274.19 547.87 1273.04 542.99 1271.86 537.83 C1270.95 533.79 1270.14 529.75 1269.38 525.69 C1269.25 525.01 1269.12 524.33 1268.99 523.63 C1268.33 520.09 1267.81 516.59 1267.5 513 C1267.17 509.35 1266.07 506.4 1264.69 503.02 C1263.72 500.17 1263.5 497.37 1263.24 494.38 C1262.98 491.76 1262.55 489.21 1262.06 486.62 C1261.91 485.81 1261.76 485 1261.6 484.16 C1261.05 481.73 1261.05 481.73 1259 479 C1258.4 476.55 1258.4 476.55 1257.94 473.75 C1257.77 472.77 1257.6 471.79 1257.43 470.79 C1257.09 468.6 1256.84 466.39 1256.62 464.19 C1256.18 460.86 1256.18 460.86 1254 458 C1251.65 454.48 1251.59 452.17 1251 448 C1250.21 445.08 1249.24 442.23 1248.25 439.38 C1247.98 438.59 1247.72 437.8 1247.44 436.99 C1245.46 431.2 1243.34 425.47 1241.09 419.77 C1240.14 417.36 1239.25 414.94 1238.38 412.5 C1237.14 409.05 1237.14 409.05 1235.38 406.38 C1234 404 1234 404 1233.5 400.94 C1233.23 398.01 1233.23 398.01 1231.57 396.12 C1229.87 393.82 1229.17 391.91 1228.31 389.19 C1226.38 383.6 1223.77 378.6 1220.93 373.43 C1218.66 369.27 1216.65 365.08 1214.8 360.71 C1214.01 358.86 1214.01 358.86 1212.44 356.94 C1211 355 1211 355 1209.81 351.62 C1207.69 345.61 1204.25 340.22 1201.02 334.74 C1199.98 332.96 1198.95 331.17 1197.93 329.37 C1194.4 323.21 1190.8 317.13 1186.81 311.25 C1184.57 307.94 1182.79 304.57 1181 301 C1179.7 299.31 1178.36 297.64 1177 296 C1174.4 292.56 1172.01 289.1 1169.94 285.31 C1168.23 282.06 1168.23 282.06 1166.1 280.13 C1163.8 277.79 1162.24 275.4 1160.5 272.62 C1156.42 266.37 1151.73 260.85 1146.81 255.24 C1144.59 252.71 1142.48 250.12 1140.44 247.44 C1129.55 233.18 1117.28 220.13 1104.54 207.53 C1100.84 203.86 1097.18 200.16 1093.52 196.45 C1082.07 184.73 1082.07 184.73 1069.64 174.07 C1066.27 171.43 1063.05 168.62 1059.81 165.81 C1055.62 162.19 1051.4 158.67 1046.91 155.41 C1044.61 153.71 1042.41 151.92 1040.19 150.12 C1034.92 145.89 1029.48 141.94 1024 138 C1021.2 135.95 1018.4 133.91 1015.61 131.86 C1010.7 128.36 1005.66 125.16 1000.5 122.06 C997.03 119.96 993.66 117.89 990.62 115.19 C987.59 112.66 984.64 111.51 981 110 C974.1 106.13 974.1 106.13 971.45 103.4 C969.96 101.75 969.96 101.75 967.12 101.06 C963.7 99.9 961.8 98.24 959 96 C955.9 94.8 955.9 94.8 953 94 C952.34 93.67 951.68 93.34 951 93 C951 92.34 951 91.68 951 91 C950.4 90.82 949.79 90.64 949.17 90.45 C944.83 89.08 941.62 87.78 938 85 C936.3 84.54 936.3 84.54 934.56 84.06 C931 83 931 83 928.56 81 C925.62 78.71 923.42 78.25 919.85 77.5 C917.44 76.85 915.94 75.55 914 74 C912.01 73.31 910.01 72.64 908 72 C904.23 70.41 900.52 68.7 896.81 66.99 C891.91 64.77 886.97 62.87 881.9 61.07 C878.81 59.93 875.78 58.67 872.75 57.38 C868.55 55.6 864.41 54.21 860 53 C858.27 52.23 858.27 52.23 856.5 51.44 C853.05 49.85 853.05 49.85 849.31 49.5 C846 49 846 49 844.27 47.59 C841.19 45.43 837.93 44.8 834.31 44 C829.85 42.95 825.45 41.91 821.12 40.38 C818.25 39.36 815.44 38.64 812.44 38.07 C806.89 36.99 801.38 35.76 795.88 34.5 C794.47 34.18 794.47 34.18 793.04 33.86 C790.35 33.24 787.68 32.63 785 32 C783.8 31.72 783.8 31.72 782.58 31.43 C777.12 30.12 777.12 30.12 776 29 C773.55 28.51 771.12 28.07 768.66 27.66 C767.91 27.53 767.15 27.41 766.37 27.28 C764.76 27.01 763.15 26.74 761.53 26.47 C759.13 26.07 756.73 25.67 754.33 25.26 C744.32 23.58 734.32 22.28 724.22 21.24 C720.51 20.84 716.81 20.4 713.11 19.96 C710.88 19.71 708.65 19.45 706.41 19.2 C704.94 19.02 703.46 18.85 701.98 18.67 C680.93 16.18 659.93 15.8 638.75 15.81 C637.57 15.81 636.4 15.81 635.18 15.81 C620.75 15.82 606.35 15.97 591.94 16.88 C590.68 16.95 589.43 17.03 588.13 17.11 C581.48 17.59 574.97 18.44 568.39 19.51 C562.71 20.33 556.98 20.74 551.26 21.2 C540.77 22.07 530.69 23.12 520.55 26.09 C515.58 27.36 510.6 27.87 505.49 28.32 C501.9 28.65 500.07 28.96 497 31 C495.16 31.4 493.3 31.73 491.44 32 C487.45 32.62 483.47 33.25 479.5 34 C478.73 34.14 477.95 34.29 477.16 34.44 C475 34.91 475 34.91 473.22 35.97 C469.35 37.76 465.03 38.13 460.84 38.77 C456.71 39.47 454.23 40.39 451 43 C448.71 43.57 448.71 43.57 446 44 C443.54 44.61 441.08 45.23 438.62 45.88 C437.36 46.2 436.09 46.53 434.79 46.87 C431.03 47.99 427.59 49.44 424 51 C421.89 51.7 419.76 52.37 417.62 53 C409.71 55.39 402.01 57.95 394.37 61.09 C392.25 61.9 390.19 62.52 388 63.06 C384.72 63.74 384.72 63.74 383 67 C381.01 67.62 381.01 67.62 378.69 68 C374.83 68.63 372.3 69.91 369 72 C362.91 75.26 356.91 78.32 350.23 80.16 C347.63 81.14 345.33 82.48 342.94 83.88 C339.53 85.85 336.04 87.66 332.56 89.5 C331.49 90.07 331.49 90.07 330.4 90.64 C326.22 92.85 322.02 94.98 317.74 96.99 C315.92 97.94 315.92 97.94 314.49 99.56 C313 101 313 101 309.44 102 C305.75 102.67 305.75 102.67 304 106 C301.73 106.88 299.45 107.45 297.09 108.06 C294.45 109.25 294.18 110.43 293 113 C291.02 113.72 289.02 114.38 287 115 C286.5 115.5 286.01 115.99 285.5 116.5 C284 118 284 118 281.12 118.88 C277.38 120.22 275.72 122.14 273 125 C271.35 126.03 269.69 127.04 268 128 C267.34 128.66 266.68 129.32 266 130 C264.82 130.43 264.82 130.43 263.62 130.88 C260.66 132.15 259.23 133.7 257 136 C255.36 137.05 253.69 138.04 252 139 C250.64 139.8 249.29 140.62 247.94 141.44 C247.29 141.83 246.64 142.22 245.96 142.62 C243.92 143.98 243.92 143.98 242.09 145.91 C239.75 148.25 237.25 150.11 234.56 152.06 C228.38 156.62 222.53 161.52 216.71 166.53 C214.92 168.07 213.12 169.6 211.31 171.12 C205.88 175.73 200.51 180.3 195.56 185.44 C193.84 187.16 192.04 188.73 190.19 190.31 C186.03 193.88 182.22 197.75 178.39 201.67 C176.04 203.96 173.56 205.95 171 208 C169.99 209.07 169 210.18 168.06 211.31 C164.6 215.37 160.97 219.25 157.31 223.12 C151.16 229.68 145.25 236.4 139.46 243.28 C137.96 245.04 136.46 246.8 134.95 248.55 C133.97 249.7 132.98 250.85 132 252 C131.56 252.52 131.11 253.03 130.65 253.56 C127.82 256.89 125.4 260.36 123 264 C121.82 265.48 120.62 266.95 119.38 268.38 C118.78 269.06 118.19 269.75 117.59 270.46 C116 272 116 272 114 272 C113.6 273.64 113.6 273.64 113.19 275.31 C112.04 278.89 111.58 279.63 109 282 C108.5 283.01 108.01 284.02 107.5 285.06 C106 288 106 288 103 290 C102.5 291.15 102.01 292.31 101.5 293.5 C100 297 100 297 97 299 C96.5 300.24 96.5 300.24 96 301.5 C95 304 95 304 92 306 C90.85 308.15 90.85 308.15 89.94 310.56 C88.21 314.89 88.21 314.89 86 316 C84.98 317.99 83.98 319.99 83 322 C82.5 322.64 82.01 323.28 81.5 323.94 C80.1 325.86 79.32 327.5 78.44 329.69 C77 333 77 333 75 334 C74.24 335.98 74.24 335.98 73.62 338.31 C72.39 342.28 70.99 344.11 68 347 C67.31 349.33 66.64 351.66 66 354 C65.52 354.47 65.03 354.95 64.54 355.44 C62.66 357.34 62.22 358.88 61.5 361.44 C60.43 364.9 59.22 367.13 57 370 C56.17 371.95 55.46 373.92 54.75 375.91 C50.05 388.97 50.05 388.97 46 391 C45.38 393.18 45.38 393.18 45 395.75 C44.07 400.82 42.88 404.68 40 409 C39.5 410.32 39.05 411.65 38.62 413 C37.48 416.58 36.24 420.1 34.94 423.62 C33.82 426.66 32.82 429.63 31.94 432.75 C31 436 31 436 29.56 439.26 C28.02 442.8 27.01 446.37 26.06 450.12 C24.49 456.24 22.73 462.27 20.83 468.29 C20.36 469.82 19.91 471.34 19.53 472.89 C19.18 474.29 18.8 475.69 18.39 477.08 C15.59 486.68 13.87 496.5 12 506.31 C11.31 509.89 10.63 513.47 9.94 517.05 C9.77 517.92 9.61 518.78 9.44 519.67 C8.48 524.65 7.44 529.6 6.32 534.55 C4.99 540.66 4.26 546.7 3.81 552.94 C3.69 554.48 3.69 554.48 3.57 556.05 C3.04 563.14 2.84 570.16 3.03 577.27 C3 580 3 580 2 583 C1.65 585 1.31 587 1 589 C0.67 589 0.34 589 0 589 C0 394.63 0 200.26 0 0 Z " fill="#FCFCFC" transform="translate(0,0)"/>
<path d="M0 0 C1.48 0.99 1.48 0.99 3 2 C3.34 3.88 3.34 3.88 3.29 6.13 C3.28 6.94 3.27 7.74 3.26 8.57 C3.24 9.42 3.21 10.26 3.19 11.12 C3.17 11.97 3.16 12.82 3.15 13.7 C3.11 15.8 3.06 17.9 3 20 C0 18 0 18 -0.68 15.73 C-1.01 12.9 -1.13 10.16 -1.12 7.31 C-1.13 6.36 -1.13 5.41 -1.13 4.43 C-1 2 -1 2 0 0 Z " fill="#4E4F51" transform="translate(1277,595)"/>
<path d="M0 0 C0.66 0.33 1.32 0.66 2 1 C2.09 4.46 2.14 7.92 2.19 11.38 C2.23 12.85 2.23 12.85 2.26 14.36 C2.27 15.3 2.28 16.24 2.29 17.21 C2.31 18.08 2.32 18.95 2.34 19.85 C2.23 20.56 2.12 21.27 2 22 C1.01 22.66 0.02 23.32 -1 24 C-2 23 -2 23 -2.12 20.5 C-2 18 -2 18 -1 17 C-0.93 13.73 -1 10.47 -1.06 7.2 C-1.01 4.55 -0.79 2.5 0 0 Z " fill="#D2D2D2" transform="translate(1278,655)"/>
<path d="M0 0 C0.66 0 1.32 0 2 0 C3.07 6.03 3.1 11.89 3 18 C2.34 18 1.68 18 1 18 C0.67 12.06 0.34 6.12 0 0 Z " fill="#28292A" transform="translate(2,670)"/>
<path d="M0 0 C0.66 0.66 1.32 1.32 2 2 C1.97 4.73 1.44 7.3 1 10 C1.66 10 2.32 10 3 10 C3 12.64 3 15.28 3 18 C2.01 17.67 1.02 17.34 0 17 C0 11.39 0 5.78 0 0 Z " fill="#B1B1B1" transform="translate(0,652)"/>
<path d="M0 0 C0.33 0 0.66 0 1 0 C1 4.29 1 8.58 1 13 C0.01 12.67 -0.98 12.34 -2 12 C-2.05 10.56 -2.09 9.13 -2.12 7.69 C-2.15 6.89 -2.17 6.09 -2.2 5.26 C-2 3 -2 3 0 0 Z " fill="#4E4F51" transform="translate(1279,643)"/>
<path d="M0 0 C0.99 0.33 1.98 0.66 3 1 C3.33 4.96 3.66 8.92 4 13 C3.01 12.34 2.02 11.68 1 11 C0.88 8.44 0.88 8.44 1 6 C0.67 5.67 0.34 5.34 0 5 C-0.04 3.33 -0.04 1.67 0 0 Z " fill="#AAAAAA" transform="translate(1276,584)"/>
<path d="M0 0 C0.66 0 1.32 0 2 0 C2.08 3.04 1.98 5.07 1 8 C0.65 10 0.31 12 0 14 C-0.33 14 -0.66 14 -1 14 C-1.03 11.85 -1.05 9.71 -1.06 7.56 C-1.07 6.37 -1.09 5.17 -1.1 3.94 C-1 1 -1 1 0 0 Z " fill="#AAAAAA" transform="translate(1,575)"/>
<path d="M0 0 C0.66 0 1.32 0 2 0 C2.33 2.31 2.66 4.62 3 7 C2.01 7.33 1.02 7.66 0 8 C-0.66 7.67 -1.32 7.34 -2 7 C-1.12 1.12 -1.12 1.12 0 0 Z " fill="#A4A4A4" transform="translate(615,1053)"/>
</svg>
